<svg width="25" height="25" viewBox="0 0 25 25" fill="none" xmlns="http://www.w3.org/2000/svg">
<mask id="mask0_785_1904" style="mask-type:alpha" maskUnits="userSpaceOnUse" x="0" y="0" width="25" height="25">
<rect x="0.510742" y="0.697754" width="24" height="24" fill="#D9D9D9"/>
</mask>
<g mask="url(#mask0_785_1904)">
<path d="M7.07074 12.6982L7.77785 11.9911L7.07074 11.284L6.36363 11.9911L7.07074 12.6982ZM12.5108 18.1382L11.8037 18.8453L12.5108 19.5525L13.2179 18.8453L12.5108 18.1382ZM24.3912 7.25781C24.3912 6.70553 23.9435 6.25781 23.3912 6.25781L14.3912 6.25781C13.8389 6.25781 13.3912 6.70553 13.3912 7.25781C13.3912 7.8101 13.8389 8.25781 14.3912 8.25781L22.3912 8.25781V16.2578C22.3912 16.8101 22.8389 17.2578 23.3912 17.2578C23.9435 17.2578 24.3912 16.8101 24.3912 16.2578V7.25781ZM2.33792 18.8453L7.77786 13.4053L6.36363 11.9911L0.923694 17.4311L2.33792 18.8453ZM6.36364 13.4053L11.8037 18.8453L13.2179 17.4311L7.77785 11.9911L6.36364 13.4053ZM13.2179 18.8453L24.0983 7.96492L22.6841 6.55071L11.8037 17.4311L13.2179 18.8453Z" fill="white"/>
</g>
</svg>
