<svg width="25" height="25" viewBox="0 0 25 25" fill="none" xmlns="http://www.w3.org/2000/svg">
<path d="M15.5107 21.6976V16.6977C15.5107 15.0409 14.1676 13.6977 12.5107 13.6977C10.8539 13.6977 9.51074 15.0409 9.51074 16.6977V21.6976M15.5107 21.6976C17.4874 21.6961 18.5236 21.671 19.3267 21.2618C20.0794 20.8783 20.6913 20.2664 21.0748 19.5137C21.5107 18.6581 21.5107 17.538 21.5107 15.2977V13.4564C21.5107 12.4396 21.5107 11.9311 21.3921 11.4549C21.2869 11.0327 21.1135 10.6305 20.8788 10.2642C20.6141 9.85088 20.2444 9.50178 19.5051 8.80356L16.9051 6.348C15.3586 4.88741 14.5854 4.15712 13.7033 3.88161C12.9267 3.63907 12.0947 3.63907 11.3182 3.88161C10.4361 4.15712 9.66286 4.88741 8.11635 6.348L5.51635 8.80356C4.77706 9.50178 4.40742 9.85088 4.14265 10.2642C3.90795 10.6305 3.73459 11.0327 3.62941 11.4549C3.51074 11.9311 3.51074 12.4396 3.51074 13.4564V15.2977C3.51074 17.538 3.51074 18.6581 3.94672 19.5137C4.33021 20.2664 4.94213 20.8783 5.69478 21.2618C6.49791 21.671 7.53404 21.6961 9.51074 21.6976M15.5107 21.6976C13.5107 21.6992 11.5107 21.6992 9.51074 21.6976" stroke="white" stroke-opacity="0.2" stroke-width="2" stroke-linecap="round" stroke-linejoin="round"/>
</svg>
