<svg width="24" height="25" viewBox="0 0 24 25" fill="none" xmlns="http://www.w3.org/2000/svg">
<path d="M21.0039 12.6978C20.8848 12.9515 20.5136 13.1391 19.7712 13.5141L13.4456 16.7097C12.917 16.9768 12.6527 17.1103 12.3754 17.1628C12.1299 17.2094 11.8779 17.2094 11.6324 17.1628C11.3552 17.1103 11.0908 16.9768 10.5622 16.7097L4.23666 13.5141C3.49424 13.1391 3.12303 12.9515 3.00391 12.6978M21.0039 17.1978C20.8848 17.4515 20.5136 17.6391 19.7712 18.0141L13.4456 21.2097C12.917 21.4768 12.6527 21.6103 12.3754 21.6628C12.1299 21.7094 11.8779 21.7094 11.6324 21.6628C11.3552 21.6103 11.0908 21.4768 10.5622 21.2097L4.23666 18.0141C3.49424 17.6391 3.12303 17.4515 3.00391 17.1978M13.4332 12.2448L19.7046 9.27919C20.4407 8.93112 20.8087 8.75709 20.9268 8.52158C21.0296 8.31664 21.0296 8.07887 20.9268 7.87393C20.8087 7.63842 20.4407 7.46439 19.7046 7.11631L13.4332 4.15066C12.9091 3.90284 12.6471 3.77892 12.3722 3.73015C12.1288 3.68696 11.879 3.68696 11.6356 3.73015C11.3607 3.77892 11.0987 3.90284 10.5746 4.15066L4.30318 7.11632C3.56712 7.46439 3.19909 7.63842 3.08099 7.87393C2.97821 8.07887 2.97821 8.31664 3.08099 8.52158C3.19909 8.75709 3.56712 8.93112 4.30318 9.27919L10.5746 12.2448C11.0987 12.4927 11.3607 12.6166 11.6356 12.6654C11.879 12.7086 12.1288 12.7086 12.3722 12.6654C12.6471 12.6166 12.9091 12.4927 13.4332 12.2448Z" stroke="white" stroke-opacity="0.2" stroke-width="2" stroke-linecap="round" stroke-linejoin="round"/>
</svg>
