<svg width="25" height="25" viewBox="0 0 25 25" fill="none" xmlns="http://www.w3.org/2000/svg">
<mask id="mask0_785_1906" style="mask-type:alpha" maskUnits="userSpaceOnUse" x="0" y="0" width="25" height="25">
<rect x="0.510742" y="0.697754" width="24" height="24" fill="#D9D9D9"/>
</mask>
<g mask="url(#mask0_785_1906)">
<path d="M17.592 3.87158C15.7703 5.16894 14.1238 6.69631 12.6936 8.41574C12.576 8.55559 12.5113 8.73232 12.5107 8.91504M12.5107 8.91504C12.5113 9.09776 12.576 9.27449 12.6936 9.41434C14.1238 11.1338 15.7702 12.6612 17.592 13.9585M12.5107 8.91504H22.5977M7.42946 11.4368C9.25125 12.7341 10.8977 14.2615 12.3279 15.9809C12.4455 16.1208 12.5102 16.2975 12.5107 16.4802M12.5107 16.4802C12.5102 16.6629 12.4455 16.8397 12.3279 16.9795C10.8977 18.699 9.25125 20.2263 7.42946 21.5237M12.5107 16.4802H2.42383" stroke="white" stroke-width="2.15" stroke-linecap="round" stroke-linejoin="round"/>
</g>
</svg>
