<svg width="24" height="25" viewBox="0 0 24 25" fill="none" xmlns="http://www.w3.org/2000/svg">
<mask id="mask0_791_2057" style="mask-type:alpha" maskUnits="userSpaceOnUse" x="0" y="0" width="25" height="25">
<rect x="0.00390625" y="0.697754" width="24" height="24" fill="#D9D9D9"/>
</mask>
<g mask="url(#mask0_791_2057)">
<path d="M6.56391 12.6982L7.27101 11.9911L6.5639 11.284L5.85679 11.9911L6.56391 12.6982ZM12.0039 18.1382L11.2968 18.8453L12.0039 19.5525L12.711 18.8453L12.0039 18.1382ZM23.8844 7.25781C23.8844 6.70553 23.4367 6.25781 22.8844 6.25781L13.8844 6.25781C13.3321 6.25781 12.8844 6.70553 12.8844 7.25781C12.8844 7.8101 13.3321 8.25781 13.8844 8.25781L21.8844 8.25781V16.2578C21.8844 16.8101 22.3321 17.2578 22.8844 17.2578C23.4367 17.2578 23.8844 16.8101 23.8844 16.2578V7.25781ZM1.83108 18.8453L7.27102 13.4053L5.85679 11.9911L0.416858 17.4311L1.83108 18.8453ZM5.8568 13.4053L11.2968 18.8453L12.711 17.4311L7.27101 11.9911L5.8568 13.4053ZM12.711 18.8453L23.5915 7.96492L22.1773 6.55071L11.2968 17.4311L12.711 18.8453Z" fill="white" fill-opacity="0.2"/>
</g>
</svg>
