<svg width="25" height="25" viewBox="0 0 25 25" fill="none" xmlns="http://www.w3.org/2000/svg">
<path d="M21.5107 12.6978C21.3916 12.9515 21.0204 13.1391 20.278 13.5141L13.9524 16.7097C13.4238 16.9768 13.1595 17.1103 12.8823 17.1628C12.6367 17.2094 12.3848 17.2094 12.1392 17.1628C11.862 17.1103 11.5977 16.9768 11.0691 16.7097L4.74349 13.5141C4.00107 13.1391 3.62986 12.9515 3.51074 12.6978M21.5107 17.1978C21.3916 17.4515 21.0204 17.6391 20.278 18.0141L13.9524 21.2097C13.4238 21.4768 13.1595 21.6103 12.8823 21.6628C12.6367 21.7094 12.3848 21.7094 12.1392 21.6628C11.862 21.6103 11.5977 21.4768 11.0691 21.2097L4.74349 18.0141C4.00107 17.6391 3.62986 17.4515 3.51074 17.1978M13.9401 12.2448L20.2115 9.27919C20.9475 8.93112 21.3156 8.75709 21.4337 8.52158C21.5364 8.31664 21.5364 8.07887 21.4337 7.87393C21.3156 7.63842 20.9475 7.46439 20.2115 7.11631L13.9401 4.15066C13.416 3.90284 13.1539 3.77892 12.8791 3.73015C12.6356 3.68696 12.3858 3.68696 12.1424 3.73015C11.8675 3.77892 11.6055 3.90284 11.0814 4.15066L4.81001 7.11632C4.07395 7.46439 3.70592 7.63842 3.58782 7.87393C3.48505 8.07887 3.48505 8.31664 3.58782 8.52158C3.70592 8.75709 4.07395 8.93112 4.81001 9.27919L11.0814 12.2448C11.6055 12.4927 11.8675 12.6166 12.1424 12.6654C12.3858 12.7086 12.6356 12.7086 12.8791 12.6654C13.1539 12.6166 13.416 12.4927 13.9401 12.2448Z" stroke="white" stroke-width="2" stroke-linecap="round" stroke-linejoin="round"/>
</svg>
