<svg width="24" height="25" viewBox="0 0 24 25" fill="none" xmlns="http://www.w3.org/2000/svg">
<path d="M15.0039 21.6976V16.6977C15.0039 15.0409 13.6608 13.6977 12.0039 13.6977C10.3471 13.6977 9.00391 15.0409 9.00391 16.6977V21.6976M15.0039 21.6976C16.9806 21.6961 18.0167 21.671 18.8199 21.2618C19.5725 20.8783 20.1844 20.2664 20.5679 19.5137C21.0039 18.6581 21.0039 17.538 21.0039 15.2977V13.4564C21.0039 12.4396 21.0039 11.9311 20.8852 11.4549C20.7801 11.0327 20.6067 10.6305 20.372 10.2642C20.1072 9.85088 19.7376 9.50178 18.9983 8.80356L16.3983 6.348C14.8518 4.88741 14.0785 4.15712 13.1964 3.88161C12.4199 3.63907 11.5879 3.63907 10.8114 3.88161C9.92927 4.15712 9.15602 4.88741 7.60952 6.348L5.00952 8.80356C4.27023 9.50178 3.90058 9.85088 3.63581 10.2642C3.40112 10.6305 3.22776 11.0327 3.12257 11.4549C3.00391 11.9311 3.00391 12.4396 3.00391 13.4564V15.2977C3.00391 17.538 3.00391 18.6581 3.43988 19.5137C3.82337 20.2664 4.4353 20.8783 5.18794 21.2618C5.99108 21.671 7.02721 21.6961 9.00391 21.6976M15.0039 21.6976C13.0039 21.6992 11.0039 21.6992 9.00391 21.6976" stroke="white" stroke-width="2" stroke-linecap="round" stroke-linejoin="round"/>
</svg>
