<svg width="24" height="25" viewBox="0 0 24 25" fill="none" xmlns="http://www.w3.org/2000/svg">
<mask id="mask0_791_2060" style="mask-type:alpha" maskUnits="userSpaceOnUse" x="0" y="0" width="25" height="25">
<rect x="0.00390625" y="0.697754" width="24" height="24" fill="#D9D9D9"/>
</mask>
<g mask="url(#mask0_791_2060)">
<path d="M17.0852 3.87158C15.2634 5.16894 13.617 6.69631 12.1867 8.41574C12.0691 8.55559 12.0044 8.73232 12.0039 8.91504M12.0039 8.91504C12.0044 9.09776 12.0691 9.27449 12.1867 9.41434C13.6169 11.1338 15.2634 12.6612 17.0852 13.9585M12.0039 8.91504H22.0908M6.92262 11.4368C8.74441 12.7341 10.3909 14.2615 11.8211 15.9809C11.9387 16.1208 12.0034 16.2975 12.0039 16.4802M12.0039 16.4802C12.0034 16.6629 11.9387 16.8397 11.8211 16.9795C10.3909 18.699 8.74441 20.2263 6.92262 21.5237M12.0039 16.4802H1.91699" stroke="white" stroke-opacity="0.2" stroke-width="2.15" stroke-linecap="round" stroke-linejoin="round"/>
</g>
</svg>
