<svg width="14" height="14" viewBox="0 0 14 14" fill="none" xmlns="http://www.w3.org/2000/svg">
<mask id="mask0_226_351" style="mask-type:luminance" maskUnits="userSpaceOnUse" x="0" y="0" width="14" height="14">
<path d="M0.180664 0.285156H13.5899V13.6944H0.180664V0.285156Z" fill="white"/>
</mask>
<g mask="url(#mask0_226_351)">
<path d="M12.2808 0.285156H1.48973C0.767313 0.285156 0.180664 0.871806 0.180664 1.59423V12.3853C0.180664 13.1077 0.767313 13.6944 1.48973 13.6944H12.2808C13.0032 13.6944 13.5899 13.1077 13.5899 12.3853V1.59423C13.5899 0.871806 13.0032 0.285156 12.2808 0.285156Z" fill="#0052FF"/>
<path fill-rule="evenodd" clip-rule="evenodd" d="M2.1709 6.98956C2.1709 8.23984 2.66757 9.43891 3.55165 10.323C4.43572 11.2071 5.63479 11.7037 6.88507 11.7037C8.13535 11.7037 9.33442 11.2071 10.2185 10.323C11.1026 9.43891 11.5992 8.23984 11.5992 6.98956C11.5992 5.73929 11.1026 4.54022 10.2185 3.65614C9.33442 2.77206 8.13535 2.27539 6.88507 2.27539C5.63479 2.27539 4.43572 2.77206 3.55165 3.65614C2.66757 4.54022 2.1709 5.73929 2.1709 6.98956ZM5.67992 5.47097C5.63872 5.47086 5.59791 5.47889 5.55984 5.49461C5.52176 5.51032 5.48716 5.5334 5.45803 5.56252C5.4289 5.59165 5.40583 5.62625 5.39011 5.66433C5.3744 5.70241 5.36637 5.74321 5.36648 5.78441V8.19472C5.36648 8.3682 5.50643 8.50815 5.67992 8.50815H8.09022C8.13142 8.50826 8.17223 8.50023 8.2103 8.48452C8.24838 8.46881 8.28298 8.44573 8.31211 8.4166C8.34124 8.38747 8.36431 8.35287 8.38003 8.3148C8.39574 8.27672 8.40377 8.23591 8.40366 8.19472V5.78441C8.40377 5.74321 8.39574 5.70241 8.38003 5.66433C8.36431 5.62625 8.34124 5.59165 8.31211 5.56252C8.28298 5.5334 8.24838 5.51032 8.2103 5.49461C8.17223 5.47889 8.13142 5.47086 8.09022 5.47097H5.67992Z" fill="white"/>
</g>
</svg>
