<svg width="17" height="16" viewBox="0 0 17 16" fill="none" xmlns="http://www.w3.org/2000/svg">
<path d="M6.75 7.62012C7.74456 7.62012 8.6984 7.22502 9.40166 6.52176C10.1049 5.8185 10.5 4.86468 10.5 3.87012C10.5 2.87556 10.1049 1.92174 9.40166 1.21848C8.6984 0.515214 7.74456 0.120117 6.75 0.120117C5.75544 0.120117 4.8016 0.515214 4.09834 1.21848C3.39508 1.92174 3 2.87556 3 3.87012C3 4.86468 3.39508 5.8185 4.09834 6.52176C4.8016 7.22502 5.75544 7.62012 6.75 7.62012ZM16.75 7.62012C16.7519 7.09764 16.6134 6.58427 16.3491 6.13361C16.0847 5.68295 15.7042 5.31156 15.2472 5.05826C14.7902 4.80496 14.2736 4.67903 13.7513 4.69366C13.2291 4.7083 12.7203 4.86294 12.2782 5.14142C11.8362 5.4199 11.477 5.81201 11.2383 6.27676C10.9996 6.74152 10.8901 7.26187 10.9212 7.78342C10.9523 8.30496 11.123 8.80857 11.4153 9.24161C11.7077 9.67465 12.1109 10.0212 12.583 10.2451V14.7031L13.833 15.9531L15.917 13.8701L14.667 12.6201L15.917 11.3701L14.883 10.3371C15.4319 10.1254 15.9039 9.75253 16.2371 9.26764C16.5703 8.78275 16.7491 8.20845 16.75 7.62012ZM13.833 7.62012C13.6685 7.61963 13.5077 7.57059 13.3709 7.47916C13.2341 7.38772 13.1274 7.25795 13.064 7.10611C13.0011 6.95371 12.9847 6.78613 13.0167 6.62442C13.0487 6.46271 13.1278 6.31406 13.244 6.19711C13.341 6.10048 13.4602 6.02922 13.5913 5.98965C13.7223 5.95009 13.8611 5.94344 13.9953 5.97028C14.1296 5.99711 14.2551 6.05662 14.3609 6.14352C14.4666 6.23043 14.5494 6.34205 14.6017 6.46854C14.6541 6.59502 14.6744 6.73245 14.661 6.86868C14.6476 7.00491 14.6009 7.13575 14.5249 7.2496C14.4489 7.36346 14.346 7.45683 14.2253 7.52145C14.1046 7.58608 13.9699 7.61996 13.833 7.62012ZM10.033 9.30313C9.39322 9.01778 8.70054 8.87023 8 8.87012H5.5C4.17392 8.87012 2.90214 9.39691 1.96446 10.3346C1.02678 11.2723 0.5 12.544 0.5 13.8701V15.5371H11.333V10.9451C10.7712 10.5131 10.3247 9.94907 10.033 9.30313Z" fill="black"/>
</svg>
