<svg width="18" height="18" viewBox="0 0 18 18" fill="none" xmlns="http://www.w3.org/2000/svg">
<mask id="mask0_226_388" style="mask-type:luminance" maskUnits="userSpaceOnUse" x="0" y="0" width="18" height="18">
<path d="M0.5 0.370117H17.5V17.3701H0.5V0.370117Z" fill="white"/>
</mask>
<g mask="url(#mask0_226_388)">
<path d="M9.00023 3.73511C10.2542 3.73511 11.3762 4.16713 12.2622 5.01013L14.6882 2.58411C13.2152 1.21311 11.2912 0.370117 9.00023 0.370117C7.42494 0.36978 5.88058 0.807472 4.53972 1.63428C3.19885 2.46108 2.1143 3.64444 1.40723 5.05212L4.23323 7.24411C4.90223 5.22911 6.78323 3.73511 9.00023 3.73511Z" fill="#EA4335"/>
<path d="M17.139 9.06512C17.139 8.50912 17.086 7.97013 17.004 7.45312H9V10.6481H13.583C13.4837 11.1631 13.2828 11.6532 12.9922 12.0898C12.7015 12.5264 12.3268 12.9008 11.89 13.1911L14.628 15.3161C16.225 13.8351 17.139 11.6471 17.139 9.06512Z" fill="#4285F4"/>
<path d="M4.22901 10.4958C4.05291 9.97165 3.96209 9.42265 3.96001 8.86975C3.96001 8.30275 4.05601 7.75774 4.22901 7.24374L1.40301 5.05176C0.807553 6.23629 0.498268 7.54398 0.500007 8.86975C0.500007 10.2438 0.826005 11.5397 1.407 12.6877L4.22901 10.4958Z" fill="#FBBC05"/>
<path d="M8.99983 17.3702C11.2948 17.3702 13.2248 16.6162 14.6278 15.3122L11.8898 13.1872C11.1288 13.7012 10.1478 14.0022 8.99983 14.0022C6.78283 14.0022 4.90184 12.5072 4.22884 10.4922L1.40283 12.6842C2.11029 14.0927 3.19539 15.2769 4.53693 16.1043C5.87846 16.9318 7.42362 17.3701 8.99983 17.3702Z" fill="#34A853"/>
</g>
</svg>
