<svg width="400" height="400" viewBox="0 0 400 400" fill="none" xmlns="http://www.w3.org/2000/svg">
<mask id="mask0_976_853" style="mask-type:alpha" maskUnits="userSpaceOnUse" x="0" y="0" width="400" height="400">
<rect width="400" height="400" fill="#D9D9D9"/>
</mask>
<g mask="url(#mask0_976_853)">
<path fill-rule="evenodd" clip-rule="evenodd" d="M225.725 289.201C261.751 274.799 287.203 239.576 287.203 198.408C287.203 153.125 256.409 115.035 214.619 103.936H394.309L264.123 344.329L225.725 289.201ZM168.462 293.887L135.751 344.329L5.69141 103.936H164.306C122.516 115.035 91.7221 153.125 91.7221 198.408C91.7221 245.18 124.574 284.278 168.462 293.887Z" fill="url(#paint0_linear_976_853)"/>
<path fill-rule="evenodd" clip-rule="evenodd" d="M179.878 222.604L179.849 222.624L263.836 344.329L290.57 296.237L220.725 195.074L193.48 155.593L193.335 155.693C171.562 170.831 165.743 200.402 179.878 222.604Z" fill="url(#paint1_linear_976_853)"/>
</g>
<defs>
<linearGradient id="paint0_linear_976_853" x1="342.047" y1="135.657" x2="99.4682" y2="307.098" gradientUnits="userSpaceOnUse">
<stop stop-color="white"/>
<stop offset="1"/>
</linearGradient>
<linearGradient id="paint1_linear_976_853" x1="277.802" y1="295.467" x2="152.911" y2="185.886" gradientUnits="userSpaceOnUse">
<stop stop-color="white"/>
<stop offset="1"/>
</linearGradient>
</defs>
</svg>
