<svg width="14" height="14" viewBox="0 0 14 14" fill="none" xmlns="http://www.w3.org/2000/svg">
<path d="M13.1906 0.783203L7.96436 4.66014L8.93736 2.36884L13.1906 0.783203Z" fill="#E17726" stroke="#E17726" stroke-width="0.010895" stroke-linecap="round" stroke-linejoin="round"/>
<path d="M1.11793 0.783203L6.30562 4.6987L5.37116 2.38728L1.11793 0.783203ZM11.3031 9.77826L9.91102 11.917L12.9055 12.7383L13.7636 9.83526L11.3031 9.77826ZM0.563965 9.83526L1.42299 12.7383L4.39816 11.917L3.00611 9.77826L0.563965 9.83526Z" fill="#E27625" stroke="#E27625" stroke-width="0.010895" stroke-linecap="round" stroke-linejoin="round"/>
<path d="M4.22589 6.1882L3.40625 7.44867L6.3437 7.56349L6.24816 4.39305L4.22589 6.1882ZM10.0824 6.1882L8.02153 4.35449L7.9461 7.58192L10.902 7.44867C10.902 7.42939 10.0824 6.1882 10.0824 6.1882ZM4.39769 11.9173L6.19117 11.0583L4.64576 9.85478L4.39769 11.9173ZM8.13635 11.039L9.91055 11.898L9.66248 9.83551C9.68175 9.85478 8.13635 11.039 8.13635 11.039Z" fill="#E27625" stroke="#E27625" stroke-width="0.010895" stroke-linecap="round" stroke-linejoin="round"/>
<path d="M9.91081 11.9174L8.1366 11.0583L8.28913 12.2233L8.26986 12.7194L9.91081 11.9174ZM4.39795 11.9174L6.05734 12.7001L6.0389 12.204L6.19143 11.0391L4.39795 11.9174Z" fill="#D5BFB2" stroke="#D5BFB2" stroke-width="0.010895" stroke-linecap="round" stroke-linejoin="round"/>
<path d="M6.07622 9.09167L4.60791 8.65167L5.65634 8.1748L6.07622 9.09167ZM8.23174 9.09167L8.67006 8.1748L9.71933 8.65167L8.23174 9.09167Z" fill="#233447" stroke="#233447" stroke-width="0.010895" stroke-linecap="round" stroke-linejoin="round"/>
<path d="M4.39786 11.9176L4.66521 9.77881L3.0251 9.8358C3.00582 9.8358 4.39786 11.9176 4.39786 11.9176ZM9.66265 9.77881L9.91072 11.9176L11.3028 9.8358L9.66265 9.77881ZM10.903 7.42969L7.94544 7.56378L8.21362 9.07231L8.65193 8.15546L9.70036 8.63317C9.71964 8.6516 10.903 7.42969 10.903 7.42969ZM4.60822 8.65159L5.65666 8.17473L6.09581 9.09159L6.36315 7.58221L3.40642 7.44896L4.60822 8.65159Z" fill="#CC6228" stroke="#CC6228" stroke-width="0.010895" stroke-linecap="round" stroke-linejoin="round"/>
<path d="M3.40625 7.42969L4.6466 9.8358L4.60805 8.63317C4.60805 8.6516 3.40625 7.42969 3.40625 7.42969ZM9.71947 8.65159L9.66248 9.85507L10.9028 7.44896C10.9028 7.42968 9.71947 8.65159 9.71947 8.65159ZM6.36214 7.56378L6.07719 9.07231L6.41997 10.8675L6.49539 8.49907L6.36214 7.56378ZM7.96454 7.56378L7.81201 8.49907L7.88827 10.8675L8.23188 9.07231L7.96454 7.56378Z" fill="#E27525" stroke="#E27525" stroke-width="0.010895" stroke-linecap="round" stroke-linejoin="round"/>
<path d="M8.23174 9.09136L7.88813 10.8857L8.1362 11.0583L9.6615 9.85485L9.72017 8.65137L8.23174 9.09136ZM4.60791 8.65137L4.64562 9.85485L6.19103 11.0583L6.4391 10.8857L6.09549 9.09136L4.60791 8.65137Z" fill="#F5841F" stroke="#F5841F" stroke-width="0.010895" stroke-linecap="round" stroke-linejoin="round"/>
<path d="M8.26986 12.7005L8.28913 12.2043L8.15504 12.0895H6.17215L6.03806 12.2043L6.05734 12.7005L4.39795 11.9177L4.98963 12.3954L6.17132 13.1975H8.19359L9.37612 12.3761L9.94852 11.8984L8.26986 12.7005Z" fill="#C0AC9D" stroke="#C0AC9D" stroke-width="0.010895" stroke-linecap="round" stroke-linejoin="round"/>
<path d="M8.13628 11.039L7.88821 10.8672H6.43834L6.19111 11.039L6.03857 12.2039L6.17183 12.0891H8.15555L8.28964 12.2039L8.13628 11.039Z" fill="#161616" stroke="#161616" stroke-width="0.010895" stroke-linecap="round" stroke-linejoin="round"/>
<path d="M13.4206 4.92749L13.8589 2.78872L13.191 0.783203L8.13737 4.54532L10.0817 6.18795L12.8289 6.98999L13.439 6.28349L13.1725 6.09241L13.5916 5.71026L13.2681 5.46218L13.6871 5.13784L13.4206 4.92749ZM0.449707 2.78872L0.888019 4.92749L0.621512 5.13784L1.04055 5.46218L0.717053 5.71026L1.13609 6.09241L0.869582 6.28349L1.4797 6.98999L4.22607 6.18795L6.17208 4.54532L1.11765 0.783203L0.449707 2.78872Z" fill="#763E1A" stroke="#763E1A" stroke-width="0.010895" stroke-linecap="round" stroke-linejoin="round"/>
<path d="M12.829 6.99029L10.0826 6.18825L10.9022 7.42945L9.66189 9.83556L11.3028 9.81628H13.7442L12.829 6.99029ZM4.22614 6.18825L1.48061 6.99029L0.56543 9.83556H3.00674L4.64685 9.85483L3.4065 7.44872L4.22782 6.18825H4.22614ZM7.96479 7.56354L8.1366 4.52635L8.9378 2.36914H5.37095L6.17215 4.52635L6.34396 7.56354L6.41938 8.5181V10.8672H7.88853V8.5181L7.96479 7.56354Z" fill="#F5841F" stroke="#F5841F" stroke-width="0.010895" stroke-linecap="round" stroke-linejoin="round"/>
</svg>
