<svg width="15" height="15" viewBox="0 0 15 15" fill="none" xmlns="http://www.w3.org/2000/svg">
<mask id="mask0_226_359" style="mask-type:luminance" maskUnits="userSpaceOnUse" x="0" y="0" width="15" height="15">
<path d="M0.905762 0.674805H14.315V14.084H0.905762V0.674805Z" fill="white"/>
</mask>
<g mask="url(#mask0_226_359)">
<path d="M13.0059 0.674805H2.21483C1.49241 0.674805 0.905762 1.26145 0.905762 1.98387V12.7749C0.905762 13.4974 1.49241 14.084 2.21483 14.084H13.0059C13.7283 14.084 14.315 13.4974 14.315 12.7749V1.98387C14.315 1.26145 13.7283 0.674805 13.0059 0.674805Z" fill="black"/>
<path d="M4.93081 5.99412C6.46868 4.48894 8.96112 4.48894 10.499 5.99412L10.6842 6.17515C10.7025 6.19267 10.7171 6.21374 10.7271 6.23708C10.737 6.26042 10.7421 6.28555 10.742 6.31092C10.7417 6.33651 10.7366 6.3618 10.7269 6.3855C10.7168 6.40875 10.7023 6.42982 10.6842 6.44752L10.0506 7.06686C10.032 7.08498 10.007 7.09512 9.98105 7.09512C9.95507 7.09512 9.93012 7.08498 9.9115 7.06686L9.65672 6.81795C9.13653 6.31284 8.43998 6.0303 7.7149 6.0303C6.98982 6.0303 6.29327 6.31284 5.77308 6.81795L5.49986 7.08445C5.49071 7.09354 5.47987 7.10074 5.46793 7.10563C5.456 7.11052 5.44321 7.11302 5.43031 7.11296C5.41741 7.11302 5.40462 7.11052 5.39269 7.10563C5.38075 7.10074 5.36989 7.09354 5.36074 7.08445L4.72801 6.46512C4.70984 6.44739 4.6954 6.42621 4.68554 6.40283C4.67568 6.37944 4.6706 6.35432 4.6706 6.32894C4.6706 6.30355 4.67568 6.27842 4.68554 6.25503C4.6954 6.23165 4.70984 6.21047 4.72801 6.19274L4.93081 5.99412ZM11.8081 7.2747L12.3712 7.82616C12.3894 7.84388 12.4039 7.86506 12.4137 7.88845C12.4236 7.91184 12.4286 7.93695 12.4286 7.96234C12.4286 7.98772 12.4236 8.01285 12.4137 8.03624C12.4039 8.05963 12.3894 8.08081 12.3712 8.09853L9.83103 10.5851C9.79379 10.6213 9.74388 10.6416 9.69191 10.6416C9.63995 10.6416 9.59003 10.6213 9.55279 10.5851L7.75011 8.8201C7.74055 8.81115 7.72799 8.80608 7.7149 8.80586C7.7021 8.80628 7.68988 8.81134 7.68054 8.8201L5.87701 10.5851C5.83977 10.6213 5.78985 10.6416 5.73789 10.6416C5.68592 10.6416 5.63601 10.6213 5.59877 10.5851L3.05856 8.09853C3.03085 8.07217 3.0119 8.03795 3.00426 8.00048C2.99662 7.96302 3.00065 7.92411 3.01582 7.88901C3.02569 7.8654 3.04023 7.84402 3.05856 7.82616L3.62174 7.2747C3.65918 7.23884 3.70902 7.21883 3.76086 7.21883C3.8127 7.21883 3.86254 7.23884 3.89998 7.2747L5.70268 9.03969C5.71208 9.0489 5.72472 9.05406 5.73789 9.05406C5.75105 9.05406 5.76368 9.0489 5.77308 9.03969L7.57578 7.2747C7.61302 7.23845 7.66293 7.21818 7.7149 7.21818C7.76687 7.21818 7.81678 7.23845 7.85402 7.2747L9.65672 9.03969C9.66612 9.0489 9.67875 9.05406 9.69191 9.05406C9.70508 9.05406 9.71772 9.0489 9.72712 9.03969L11.5298 7.2747C11.5671 7.23845 11.617 7.21818 11.6689 7.21818C11.7209 7.21818 11.7708 7.23845 11.8081 7.2747Z" fill="white"/>
</g>
</svg>
